<?xml version="1.0" encoding="utf-8"?>
<!-- Generator: Adobe Illustrator 16.0.0, SVG Export Plug-In . SVG Version: 6.00 Build 0)  -->
<!DOCTYPE svg PUBLIC "-//W3C//DTD SVG 1.1//EN" "http://www.w3.org/Graphics/SVG/1.1/DTD/svg11.dtd">
<svg version="1.1" id="Layer_1" xmlns="http://www.w3.org/2000/svg" xmlns:xlink="http://www.w3.org/1999/xlink" x="0px" y="0px"
	 width="140px" height="240px" viewBox="0 0 140 240" enable-background="new 0 0 140 240" xml:space="preserve">
<g id="KDhhyS.tif" display="none">
</g>
<circle cx="119" cy="119" r="19"/>
<path fill="#FFFFFF" d="M125.463,112.535c0.652,0.652,0.711,1.674,0.168,2.391c-1.064,1.4-2.205,2.758-3.418,4.074
	c1.213,1.316,2.354,2.676,3.418,4.073c0.543,0.716,0.488,1.737-0.168,2.391c-0.65,0.653-1.672,0.708-2.391,0.17
	c-1.398-1.065-2.756-2.207-4.072-3.421c-1.316,1.212-2.676,2.354-4.074,3.42c-0.715,0.539-1.736,0.482-2.389-0.17
	c-0.652-0.65-0.709-1.676-0.17-2.39c1.064-1.398,2.207-2.759,3.418-4.073c-1.209-1.317-2.354-2.676-3.42-4.072
	c-0.537-0.717-0.482-1.738,0.172-2.391c0.652-0.652,1.674-0.709,2.389-0.17c1.398,1.064,2.756,2.206,4.074,3.42
	c1.314-1.214,2.674-2.355,4.072-3.422C123.791,111.826,124.812,111.885,125.463,112.535z"/>
<circle fill="#009EE5" cx="119" cy="69" r="19"/>
<path fill="#FFFFFF" d="M111.436,67.5h14.863c0.389,0,1.701,0.079,1.701,1.46s-1.076,1.54-1.73,1.54h-14.771
	c-0.329,0-1.494-0.128-1.494-1.509C110,67.829,111.018,67.5,111.436,67.5z"/>
<path fill="#FFFFFF" d="M111.436,73.5h14.863c0.389,0,1.701,0.079,1.701,1.46s-1.076,1.54-1.73,1.54h-14.771
	c-0.329,0-1.494-0.128-1.494-1.509C110,73.829,111.018,73.5,111.436,73.5z"/>
<path fill="#FFFFFF" d="M111.436,61.5h14.863c0.389,0,1.701,0.079,1.701,1.46s-1.076,1.54-1.73,1.54h-14.771
	c-0.329,0-1.494-0.128-1.494-1.509C110,61.829,111.018,61.5,111.436,61.5z"/>
<g>
	<path fill="#00AFF0" d="M57.847,14.248c-2.745-0.033-3.779,2.477-3.779,5.182c0,2.444,0.904,5.278,3.779,5.278
		c3.006-0.032,3.749-3.063,3.749-5.278C61.596,16.627,60.368,14.28,57.847,14.248z"/>
	<path fill="#00AFF0" d="M74.812,13.856c-2.356,0-3.775,1.467-4.295,3.781h8.273C78.529,15.454,76.917,13.856,74.812,13.856z"/>
	<path fill="#00AFF0" d="M90,12.505c0-2.757-2.215-4.993-4.949-4.993c-1.412,0-2.684,0.599-3.584,1.554
		c-2.092-1.468-4.631-2.33-7.373-2.33c-2.77,0-5.332,0.884-7.433,2.378c-0.949-0.883-2.212-1.425-3.604-1.425
		c-1.033,0-1.997,0.302-2.812,0.817c-1.938-3.477-5.625-5.829-9.861-5.829c-3.868,0-7.278,1.957-9.322,4.943
		c-1.708-1.769-4.091-2.87-6.731-2.87c-1.747,0-3.374,0.488-4.775,1.324C29.523,2.715,26.815,0,23.475,0
		c-3.359,0-6.081,2.746-6.081,6.133c0,0.079,0.008,0.156,0.011,0.233c-0.651-0.099-1.317-0.151-1.998-0.151
		c-1.978,0-3.851,0.441-5.538,1.225C8.925,6.928,7.847,6.637,6.701,6.637C3.001,6.637,0,9.663,0,13.394
		c0,1.978,0.849,3.75,2.189,4.987c-0.038,0.404-0.058,0.812-0.058,1.227c0,7.395,5.943,13.391,13.275,13.391
		c2.852,0,5.489-0.909,7.652-2.45c1.947,2.687,5.085,4.441,8.638,4.441c0.087,0,0.171-0.011,0.257-0.013
		C32.975,37.9,35.729,40,38.978,40c3.289,0,6.076-2.153,7.064-5.137c1.127,2.155,3.368,3.627,5.95,3.627
		c3.233,0,5.929-2.301,6.577-5.366c0.467,0.065,0.94,0.11,1.425,0.11c2.632,0,5.024-1.006,6.843-2.649
		c2.068,1.417,4.565,2.246,7.256,2.246c7.144,0,12.937-5.842,12.937-13.048c0-0.891-0.09-1.761-0.26-2.602
		C88.654,16.477,90,14.652,90,12.505z M81.18,20.375H70.514c0,2.511,1.613,4.335,4.359,4.335c3.555,0,3.555-2.346,5.461-2.346
		c1.127,0,1.939,0.978,1.939,1.858c0,2.868-4.558,4.204-7.4,4.204c-5.364,0-8.011-2.98-8.809-6.322
		c-0.711,3.504-2.983,6.322-7.026,6.322c-2.165,0-3.779-0.881-4.651-2.412h-0.066v6.356c0,1.564-0.937,2.378-2.358,2.378
		s-2.359-0.814-2.359-2.378V14.639l-5.3,15.157c-1.129,3.258-2.423,4.953-5.396,4.953c-2.099,0-2.972-1.041-2.972-2.183
		c0-1.271,0.904-1.922,2.164-1.922h0.485c0.613,0,1.293-0.032,1.648-1.5l-4.911-14.11c-0.172-0.509-0.306-0.893-0.401-1.214
		c-0.107,0.142-0.232,0.274-0.377,0.431l-3.49,3.682l4.911,6.648c0.162,0.229,0.485,0.75,0.485,1.532
		c0,1.206-0.969,2.314-2.23,2.314c-1.163,0-1.775-0.587-2.132-1.108l-4.458-6.355l-1.649,1.466v3.618
		c0,1.564-0.935,2.379-2.358,2.379c-1.42,0-2.357-0.815-2.357-2.379v-1.75c-0.848,2.811-4.002,4.13-7.044,4.13
		c-4.264,0-7.818-1.925-7.818-4.271c0-1.044,0.582-1.988,1.906-1.988c2.037,0,2.231,2.934,5.719,2.934
		c1.681,0,2.747-0.751,2.747-1.728c0-1.206-1.034-1.403-2.713-1.827l-2.779-0.683c-2.745-0.686-4.878-1.826-4.878-5.021
		c0-3.877,3.813-5.312,7.075-5.312c3.587,0,7.206,1.435,7.206,3.618c0,1.107-0.742,2.086-1.971,2.086
		c-1.842,0-1.907-2.184-4.879-2.184c-1.648,0-2.715,0.455-2.715,1.465c0,1.109,1.067,1.37,2.522,1.696l1.969,0.456
		c2.264,0.522,4.888,1.423,5.655,3.687V6.491c0-1.564,0.937-2.379,2.357-2.379c1.423,0,2.358,0.815,2.358,2.379v10.82l5.236-5.866
		c0.485-0.522,1.099-0.913,1.808-0.913c0.77,0,1.584,0.497,1.98,1.225c0.384-0.739,1.147-1.225,2.03-1.225
		c1.26,0,2.133,0.716,2.423,1.792l3.039,11.112h0.064l2.876-10.787c0.323-1.206,0.969-2.119,2.261-2.119
		c1.117,0,1.761,0.556,2.101,1.13c0.29-0.737,0.919-1.13,1.938-1.13c1.391,0,2.135,0.783,2.135,2.249v0.75h0.064
		c0.776-2.019,2.682-2.998,4.975-2.998c3.368,0,6.374,2.125,7.181,6.582c0.92-4.027,3.99-6.582,8.623-6.582
		c5.428,0,8.529,3.878,8.529,7.789C83.246,19.95,82.762,20.373,81.18,20.375z M84.376,11.425h-0.89v2.442h-0.657v-2.442h-0.892
		v-0.552h2.438L84.376,11.425L84.376,11.425z M87.916,13.867h-0.611v-2.123h-0.01l-0.729,2.123h-0.502l-0.73-2.101h-0.008v2.101
		h-0.611v-2.994h0.92l0.695,2.059h0.008l0.658-2.059h0.92V13.867z"/>
</g>
<g>
	<path fill="#00AFF0" d="M63.174,111.777c-1.992,0-3.191,1.248-3.626,3.215h6.984C66.313,113.133,64.948,111.777,63.174,111.777z"/>
	<path fill="#00AFF0" d="M48.848,112.112c-2.317-0.031-3.191,2.104-3.191,4.404c0,2.076,0.764,4.485,3.191,4.485
		c2.539-0.026,3.166-2.603,3.166-4.485C52.014,114.133,50.977,112.139,48.848,112.112z"/>
	<path fill="#00AFF0" d="M76,110.629c0-2.344-1.87-4.244-4.18-4.244c-1.191,0-2.266,0.51-3.026,1.321
		c-1.767-1.248-3.91-1.981-6.226-1.981c-2.339,0-4.502,0.752-6.276,2.021c-0.802-0.75-1.868-1.211-3.043-1.211
		c-0.873,0-1.687,0.257-2.375,0.693c-1.637-2.955-4.75-4.953-8.328-4.953c-3.267,0-6.146,1.664-7.872,4.201
		c-1.442-1.504-3.455-2.439-5.684-2.439c-1.476,0-2.85,0.415-4.032,1.125c-0.026-2.855-2.313-5.164-5.134-5.164
		c-2.836,0-5.135,2.334-5.135,5.213c0,0.066,0.007,0.133,0.009,0.199c-0.55-0.084-1.113-0.129-1.687-0.129
		c-1.67,0-3.252,0.375-4.676,1.041c-0.798-0.434-1.708-0.682-2.676-0.682c-3.125,0-5.659,2.569-5.659,5.74
		c0,1.684,0.717,3.188,1.849,4.239c-0.032,0.343-0.048,0.688-0.048,1.042c0,6.284,5.018,11.382,11.21,11.382
		c2.408,0,4.636-0.771,6.461-2.083c1.645,2.284,4.294,3.772,7.294,3.772c0.074,0,0.145-0.01,0.217-0.013
		c0.862,2.485,3.188,4.271,5.932,4.271c2.777,0,5.131-1.83,5.965-4.366c0.952,1.832,2.844,3.083,5.024,3.083
		c2.73,0,5.006-1.956,5.554-4.562c0.395,0.06,0.794,0.098,1.203,0.098c2.223,0,4.243-0.854,5.779-2.251
		c1.747,1.205,3.856,1.905,6.127,1.905c6.032,0,10.923-4.965,10.923-11.089c0-0.758-0.076-1.498-0.221-2.211
		C74.863,114.006,76,112.454,76,110.629z M68.554,117.315h-9.003c0,2.135,1.362,3.685,3.681,3.685c3.001,0,3.001-1.994,4.611-1.994
		c0.955,0,1.638,0.831,1.638,1.579c0,2.437-3.847,3.574-6.249,3.574c-4.528,0-6.764-2.534-7.438-5.374
		c-0.6,2.979-2.519,5.374-5.933,5.374c-1.829,0-3.192-0.749-3.928-2.052h-0.056v5.401c0,1.329-0.791,2.021-1.991,2.021
		c-1.2,0-1.992-0.691-1.992-2.021v-15.072l-4.476,12.881c-0.953,2.772-2.046,4.214-4.557,4.214c-1.772,0-2.509-0.886-2.509-1.856
		c0-1.078,0.763-1.634,1.827-1.634h0.41c0.518,0,1.092-0.024,1.392-1.272l-4.147-11.996c-0.145-0.429-0.258-0.758-0.338-1.029
		c-0.091,0.119-0.197,0.23-0.319,0.365l-2.947,3.129l4.146,5.649c0.137,0.196,0.41,0.637,0.41,1.303c0,1.027-0.819,1.97-1.883,1.97
		c-0.983,0-1.5-0.499-1.801-0.941l-3.765-5.4l-1.393,1.246v3.075c0,1.327-0.79,2.021-1.991,2.021c-1.2,0-1.991-0.693-1.991-2.021
		v-1.488c-0.716,2.391-3.379,3.513-5.948,3.513c-3.601,0-6.602-1.636-6.602-3.628c0-0.887,0.491-1.69,1.609-1.69
		c1.72,0,1.884,2.494,4.829,2.494c1.42,0,2.32-0.639,2.32-1.469c0-1.029-0.874-1.196-2.292-1.553l-2.347-0.58
		c-2.319-0.582-4.12-1.553-4.12-4.271c0-3.295,3.219-4.515,5.974-4.515c3.029,0,6.085,1.219,6.085,3.073
		c0,0.94-0.626,1.772-1.664,1.772c-1.555,0-1.61-1.856-4.12-1.856c-1.391,0-2.292,0.391-2.292,1.246c0,0.942,0.9,1.164,2.129,1.441
		l1.663,0.389c1.912,0.445,4.128,1.209,4.775,3.133v-12.635c0-1.331,0.791-2.021,1.991-2.021c1.201,0,1.991,0.691,1.991,2.021v9.195
		l4.421-4.986c0.41-0.44,0.927-0.772,1.527-0.772c0.65,0,1.337,0.423,1.672,1.041c0.323-0.628,0.968-1.041,1.714-1.041
		c1.064,0,1.801,0.607,2.046,1.521l2.565,9.446h0.055l2.429-9.169c0.272-1.026,0.818-1.801,1.909-1.801
		c0.943,0,1.487,0.472,1.774,0.96c0.245-0.626,0.777-0.96,1.637-0.96c1.175,0,1.803,0.665,1.803,1.91v0.639h0.054
		c0.655-1.716,2.264-2.548,4.201-2.548c2.843,0,5.382,1.806,6.063,5.594c0.777-3.422,3.369-5.594,7.281-5.594
		c4.584,0,7.203,3.296,7.203,6.62C70.297,116.958,69.887,117.316,68.554,117.315z M71.25,109.711H70.5v2.076h-0.556v-2.076h-0.752
		v-0.469h2.058V109.711z M74.24,111.787h-0.518v-1.805h-0.012l-0.611,1.805h-0.428l-0.613-1.786h-0.008v1.786h-0.519v-2.545h0.778
		l0.588,1.751h0.008l0.557-1.751h0.775v2.545H74.24z"/>
</g>
<g>
	<path fill="#009EE5" d="M63.174,161.777c-1.992,0-3.191,1.248-3.626,3.215h6.984C66.313,163.133,64.948,161.777,63.174,161.777z"/>
	<path fill="#009EE5" d="M48.848,162.111c-2.317-0.03-3.191,2.104-3.191,4.404c0,2.076,0.764,4.485,3.191,4.485
		c2.539-0.026,3.166-2.603,3.166-4.485C52.014,164.133,50.977,162.139,48.848,162.111z"/>
	<path fill="#009EE5" d="M76,160.629c0-2.344-1.87-4.244-4.18-4.244c-1.191,0-2.266,0.51-3.026,1.321
		c-1.767-1.248-3.91-1.981-6.226-1.981c-2.339,0-4.502,0.752-6.276,2.021c-0.802-0.75-1.868-1.211-3.043-1.211
		c-0.873,0-1.687,0.257-2.375,0.693c-1.637-2.955-4.75-4.953-8.328-4.953c-3.267,0-6.146,1.664-7.872,4.201
		c-1.442-1.504-3.455-2.439-5.684-2.439c-1.476,0-2.85,0.415-4.032,1.125c-0.026-2.855-2.313-5.164-5.134-5.164
		c-2.836,0-5.135,2.334-5.135,5.213c0,0.066,0.007,0.133,0.009,0.199c-0.55-0.084-1.113-0.129-1.687-0.129
		c-1.67,0-3.252,0.375-4.676,1.041c-0.798-0.434-1.708-0.682-2.676-0.682c-3.125,0-5.659,2.568-5.659,5.739
		c0,1.685,0.717,3.188,1.849,4.239c-0.032,0.343-0.048,0.688-0.048,1.042c0,6.284,5.018,11.382,11.21,11.382
		c2.408,0,4.636-0.771,6.461-2.083c1.645,2.284,4.294,3.772,7.294,3.772c0.074,0,0.145-0.01,0.217-0.013
		c0.862,2.485,3.188,4.271,5.932,4.271c2.777,0,5.131-1.83,5.965-4.366c0.952,1.832,2.844,3.083,5.024,3.083
		c2.73,0,5.006-1.956,5.554-4.562c0.395,0.06,0.794,0.098,1.203,0.098c2.223,0,4.243-0.854,5.779-2.251
		c1.747,1.205,3.856,1.905,6.127,1.905c6.032,0,10.923-4.965,10.923-11.09c0-0.758-0.076-1.498-0.221-2.211
		C74.863,164.006,76,162.454,76,160.629z M68.554,167.314h-9.003c0,2.136,1.362,3.686,3.681,3.686c3.001,0,3.001-1.994,4.611-1.994
		c0.955,0,1.638,0.831,1.638,1.579c0,2.437-3.847,3.574-6.249,3.574c-4.528,0-6.764-2.534-7.438-5.374
		c-0.6,2.979-2.519,5.374-5.933,5.374c-1.829,0-3.192-0.749-3.928-2.052h-0.056v5.401c0,1.329-0.791,2.021-1.991,2.021
		c-1.2,0-1.992-0.691-1.992-2.021v-15.071l-4.476,12.881c-0.953,2.772-2.046,4.214-4.557,4.214c-1.772,0-2.509-0.886-2.509-1.856
		c0-1.078,0.763-1.634,1.827-1.634h0.41c0.518,0,1.092-0.024,1.392-1.272l-4.147-11.996c-0.145-0.429-0.258-0.758-0.338-1.028
		c-0.091,0.119-0.197,0.229-0.319,0.364l-2.947,3.13l4.146,5.649c0.137,0.196,0.41,0.637,0.41,1.303c0,1.027-0.819,1.97-1.883,1.97
		c-0.983,0-1.5-0.499-1.801-0.941l-3.765-5.399l-1.393,1.246v3.074c0,1.327-0.79,2.021-1.991,2.021c-1.2,0-1.991-0.693-1.991-2.021
		v-1.488c-0.716,2.391-3.379,3.513-5.948,3.513c-3.601,0-6.602-1.636-6.602-3.628c0-0.887,0.491-1.689,1.609-1.689
		c1.72,0,1.884,2.493,4.829,2.493c1.42,0,2.32-0.639,2.32-1.469c0-1.029-0.874-1.196-2.292-1.554l-2.347-0.579
		c-2.319-0.582-4.12-1.554-4.12-4.271c0-3.295,3.219-4.515,5.974-4.515c3.029,0,6.085,1.219,6.085,3.073
		c0,0.939-0.626,1.771-1.664,1.771c-1.555,0-1.61-1.855-4.12-1.855c-1.391,0-2.292,0.391-2.292,1.246c0,0.941,0.9,1.164,2.129,1.44
		l1.663,0.39c1.912,0.444,4.128,1.209,4.775,3.133v-12.635c0-1.332,0.791-2.021,1.991-2.021c1.201,0,1.991,0.691,1.991,2.021v9.194
		l4.421-4.985c0.41-0.44,0.927-0.772,1.527-0.772c0.65,0,1.337,0.423,1.672,1.041c0.323-0.628,0.968-1.041,1.714-1.041
		c1.064,0,1.801,0.606,2.046,1.521l2.565,9.446h0.055l2.429-9.169c0.272-1.025,0.818-1.801,1.909-1.801
		c0.943,0,1.487,0.472,1.774,0.96c0.245-0.626,0.777-0.96,1.637-0.96c1.175,0,1.803,0.665,1.803,1.91v0.639h0.054
		c0.655-1.716,2.264-2.548,4.201-2.548c2.843,0,5.382,1.806,6.063,5.594c0.777-3.422,3.369-5.594,7.281-5.594
		c4.584,0,7.203,3.296,7.203,6.62C70.297,166.958,69.887,167.316,68.554,167.314z M71.25,159.711H70.5v2.076h-0.556v-2.076h-0.752
		v-0.469h2.058V159.711z M74.24,161.787h-0.518v-1.805h-0.012l-0.611,1.805h-0.428l-0.613-1.786h-0.008v1.786h-0.519v-2.545h0.778
		l0.588,1.751h0.008l0.557-1.751h0.775v2.545H74.24z"/>
</g>
<circle fill="#00AFF0" cx="119" cy="19" r="19"/>
<path fill="#FFFFFF" d="M111.436,17.5h14.863c0.389,0,1.701,0.079,1.701,1.46s-1.076,1.54-1.73,1.54h-14.771
	c-0.329,0-1.494-0.128-1.494-1.509C110,17.829,111.018,17.5,111.436,17.5z"/>
<path fill="#FFFFFF" d="M111.436,23.5h14.863c0.389,0,1.701,0.079,1.701,1.46s-1.076,1.54-1.73,1.54h-14.771
	c-0.329,0-1.494-0.128-1.494-1.509C110,23.829,111.018,23.5,111.436,23.5z"/>
<path fill="#FFFFFF" d="M111.436,11.5h14.863c0.389,0,1.701,0.079,1.701,1.46s-1.076,1.54-1.73,1.54h-14.771
	c-0.329,0-1.494-0.128-1.494-1.509C110,11.829,111.018,11.5,111.436,11.5z"/>
<path fill="#FFFFFF" d="M117.523,157.148c0.512-0.265,1.148-0.179,1.576,0.254c0.531,0.541,0.531,1.414,0,1.951l-7.136,7.235
	c-0.247,0.253-0.587,0.409-0.965,0.409c-0.379,0-0.722-0.156-0.966-0.409l-7.137-7.235c-0.53-0.537-0.531-1.41,0-1.951
	c0.427-0.433,1.065-0.519,1.576-0.254l6.524,4.852L117.523,157.148z"/>
<path fill="#FFFFFF" d="M117.523,210.852c0.512,0.265,1.148,0.179,1.576-0.254c0.531-0.541,0.531-1.414,0-1.951l-7.136-7.235
	c-0.247-0.253-0.587-0.409-0.965-0.409c-0.379,0-0.722,0.156-0.966,0.409l-7.137,7.235c-0.53,0.537-0.531,1.41,0,1.951
	c0.427,0.433,1.065,0.519,1.576,0.254l6.524-4.852L117.523,210.852z"/>
<g>
	<path fill="#009EE5" d="M74.812,63.856c-2.356,0-3.775,1.467-4.295,3.781h8.273C78.529,65.454,76.917,63.856,74.812,63.856z"/>
	<path fill="#009EE5" d="M57.847,64.248c-2.745-0.033-3.779,2.477-3.779,5.182c0,2.444,0.904,5.278,3.779,5.278
		c3.006-0.032,3.749-3.063,3.749-5.278C61.596,66.627,60.368,64.28,57.847,64.248z"/>
	<path fill="#009EE5" d="M90,62.505c0-2.757-2.215-4.993-4.949-4.993c-1.412,0-2.684,0.599-3.584,1.554
		c-2.092-1.468-4.631-2.33-7.373-2.33c-2.77,0-5.332,0.884-7.433,2.378c-0.949-0.883-2.212-1.425-3.604-1.425
		c-1.033,0-1.997,0.302-2.812,0.817c-1.938-3.477-5.625-5.829-9.861-5.829c-3.868,0-7.278,1.957-9.322,4.943
		c-1.708-1.769-4.091-2.87-6.731-2.87c-1.747,0-3.374,0.488-4.775,1.324C29.523,52.715,26.815,50,23.475,50
		c-3.359,0-6.081,2.746-6.081,6.133c0,0.079,0.008,0.156,0.011,0.233c-0.651-0.099-1.317-0.151-1.998-0.151
		c-1.978,0-3.851,0.441-5.538,1.225c-0.944-0.512-2.022-0.803-3.168-0.803c-3.7,0-6.701,3.026-6.701,6.757
		c0,1.978,0.849,3.75,2.189,4.987c-0.038,0.404-0.058,0.812-0.058,1.227c0,7.395,5.943,13.391,13.275,13.391
		c2.852,0,5.489-0.909,7.652-2.45c1.947,2.688,5.085,4.441,8.638,4.441c0.087,0,0.171-0.012,0.257-0.014
		C32.975,87.9,35.729,90,38.978,90c3.289,0,6.076-2.152,7.064-5.137c1.127,2.154,3.368,3.627,5.95,3.627
		c3.233,0,5.929-2.301,6.577-5.366c0.467,0.065,0.94,0.11,1.425,0.11c2.632,0,5.024-1.006,6.843-2.649
		c2.068,1.417,4.565,2.246,7.256,2.246c7.144,0,12.937-5.843,12.937-13.048c0-0.891-0.09-1.761-0.26-2.602
		C88.654,66.477,90,64.652,90,62.505z M81.18,70.375H70.514c0,2.511,1.613,4.335,4.359,4.335c3.555,0,3.555-2.346,5.461-2.346
		c1.127,0,1.939,0.978,1.939,1.858c0,2.868-4.558,4.204-7.4,4.204c-5.364,0-8.011-2.979-8.809-6.322
		c-0.711,3.506-2.983,6.322-7.026,6.322c-2.165,0-3.779-0.881-4.651-2.41h-0.066v6.354c0,1.566-0.937,2.378-2.358,2.378
		s-2.359-0.816-2.359-2.378V64.639l-5.3,15.157c-1.129,3.26-2.423,4.953-5.396,4.953c-2.099,0-2.972-1.041-2.972-2.186
		c0-1.271,0.904-1.922,2.164-1.922h0.485c0.613,0,1.293-0.031,1.648-1.5l-4.911-14.109c-0.172-0.509-0.306-0.893-0.401-1.214
		c-0.107,0.142-0.232,0.274-0.377,0.431l-3.49,3.682l4.911,6.648c0.162,0.229,0.485,0.75,0.485,1.53c0,1.207-0.969,2.313-2.23,2.313
		c-1.163,0-1.775-0.585-2.132-1.106l-4.458-6.354l-1.649,1.466v3.618c0,1.566-0.935,2.379-2.358,2.379
		c-1.42,0-2.357-0.816-2.357-2.379v-1.75c-0.848,2.812-4.002,4.13-7.044,4.13c-4.264,0-7.818-1.923-7.818-4.269
		c0-1.044,0.582-1.988,1.906-1.988c2.037,0,2.231,2.934,5.719,2.934c1.681,0,2.747-0.751,2.747-1.728
		c0-1.206-1.034-1.403-2.713-1.827l-2.779-0.683c-2.745-0.686-4.878-1.826-4.878-5.021c0-3.877,3.813-5.312,7.075-5.312
		c3.587,0,7.206,1.435,7.206,3.618c0,1.107-0.742,2.086-1.971,2.086c-1.842,0-1.907-2.184-4.879-2.184
		c-1.648,0-2.715,0.455-2.715,1.465c0,1.109,1.067,1.37,2.522,1.696l1.969,0.456c2.264,0.522,4.888,1.423,5.655,3.687V56.491
		c0-1.564,0.937-2.379,2.357-2.379c1.423,0,2.358,0.817,2.358,2.379v10.82l5.236-5.866c0.485-0.522,1.099-0.913,1.808-0.913
		c0.77,0,1.584,0.497,1.98,1.225c0.384-0.739,1.147-1.225,2.03-1.225c1.26,0,2.133,0.716,2.423,1.792l3.039,11.112h0.064
		l2.876-10.787c0.323-1.206,0.969-2.119,2.261-2.119c1.117,0,1.761,0.556,2.101,1.13c0.29-0.737,0.919-1.13,1.938-1.13
		c1.391,0,2.135,0.783,2.135,2.249v0.75h0.064c0.776-2.019,2.682-2.998,4.975-2.998c3.368,0,6.374,2.125,7.181,6.582
		c0.92-4.027,3.99-6.582,8.623-6.582c5.428,0,8.529,3.878,8.529,7.789C83.246,69.95,82.762,70.373,81.18,70.375z M84.376,61.425
		h-0.89v2.442h-0.657v-2.442h-0.892v-0.552h2.438L84.376,61.425L84.376,61.425z M87.916,63.867h-0.611v-2.123h-0.01l-0.729,2.123
		h-0.502l-0.73-2.101h-0.008v2.101h-0.611v-2.994h0.92l0.695,2.059h0.008l0.658-2.059h0.92V63.867z"/>
</g>
<path fill="#FFFFFF" d="M14,200c-7.73,0-14,6.268-14,14s6.27,14,14,14s14-6.268,14-14S21.73,200,14,200z M14,226
	c-6.627,0-12-5.373-12-12s5.373-12,12-12s12,5.373,12,12S20.627,226,14,226z"/>
<g>
	<path fill="#FFFFFF" d="M12.672,208.28l-4.428,5.047c-0.326,0.372-0.326,0.974,0,1.346l4.427,5.048
		c0.149,0.17,0.36,0.279,0.591,0.279c0.461,0,0.836-0.428,0.836-0.953c0-0.16-0.035-0.311-0.098-0.441l-1.359-2.701l6.518-0.477
		c0.461,0,0.828-0.429,0.828-0.953c0.013-0.154,0.017-0.309,0.017-0.464s-0.004-0.331-0.017-0.485c0-0.524-0.367-0.955-0.828-0.955
		l-6.518-0.476l1.359-2.7c0.062-0.131,0.098-0.28,0.098-0.442c0-0.525-0.375-0.95-0.836-0.952
		C13.031,208.002,12.822,208.107,12.672,208.28z"/>
</g>
<path fill="#FFFFFF" d="M40,214c0,7.732,6.27,14,14,14s14-6.268,14-14s-6.27-14-14-14S40,206.268,40,214z M42,214
	c0-6.627,5.373-12,12-12s12,5.373,12,12s-5.373,12-12,12S42,220.627,42,214z"/>
<g>
	<path fill="#FFFFFF" d="M55.328,208.28l4.428,5.047c0.326,0.372,0.326,0.974,0,1.346l-4.427,5.048
		c-0.149,0.17-0.36,0.279-0.591,0.279c-0.461,0-0.836-0.428-0.836-0.953c0-0.16,0.035-0.311,0.098-0.441l1.359-2.701l-6.518-0.477
		c-0.461,0-0.828-0.429-0.828-0.953c-0.013-0.154-0.017-0.309-0.017-0.464s0.004-0.331,0.017-0.485c0-0.522,0.367-0.955,0.828-0.955
		l6.518-0.476l-1.359-2.7c-0.062-0.131-0.098-0.278-0.098-0.44c0-0.524,0.375-0.95,0.836-0.952
		C54.969,208.002,55.178,208.107,55.328,208.28z"/>
</g>
</svg>
